<svg width="16" height="16" viewBox="0 0 16 16" fill="none" xmlns="http://www.w3.org/2000/svg">
<path fill-rule="evenodd" clip-rule="evenodd" d="M9.98758 10.8715C7.77902 12.6403 4.54616 12.5011 2.49884 10.4538C0.302144 8.25709 0.302144 4.69554 2.49884 2.49884C4.69554 0.302144 8.25709 0.302144 10.4538 2.49884C12.5011 4.54616 12.6403 7.77901 10.8715 9.98757L15.1678 14.2839C15.4119 14.528 15.4119 14.9237 15.1678 15.1678C14.9237 15.4119 14.528 15.4119 14.2839 15.1678L9.98758 10.8715ZM3.38273 9.56991C1.67418 7.86137 1.67418 5.09127 3.38273 3.38273C5.09127 1.67418 7.86137 1.67418 9.56991 3.38273C11.2772 5.09002 11.2785 7.8573 9.57367 9.56614C9.57241 9.56739 9.57115 9.56863 9.5699 9.56989C9.56864 9.57114 9.56739 9.5724 9.56615 9.57366C7.85731 11.2785 5.09002 11.2772 3.38273 9.56991Z" fill="black"/>
</svg>
