<svg width="20" height="16" viewBox="0 0 20 16" fill="none" xmlns="http://www.w3.org/2000/svg">
<path fill-rule="evenodd" clip-rule="evenodd" d="M19.6875 8C19.6875 7.48223 19.2678 7.0625 18.75 7.0625H1.25C0.732232 7.0625 0.3125 7.48223 0.3125 8C0.3125 8.51777 0.732232 8.9375 1.25 8.9375H18.75C19.2678 8.9375 19.6875 8.51777 19.6875 8Z" fill="black"/>
<path fill-rule="evenodd" clip-rule="evenodd" d="M19.6875 1.75C19.6875 1.23223 19.2678 0.8125 18.75 0.8125H1.25C0.732232 0.8125 0.3125 1.23223 0.3125 1.75C0.3125 2.26777 0.732232 2.6875 1.25 2.6875H18.75C19.2678 2.6875 19.6875 2.26777 19.6875 1.75Z" fill="black"/>
<path fill-rule="evenodd" clip-rule="evenodd" d="M19.6875 14.25C19.6875 13.7322 19.2678 13.3125 18.75 13.3125H1.25C0.732232 13.3125 0.3125 13.7322 0.3125 14.25C0.3125 14.7678 0.732232 15.1875 1.25 15.1875H18.75C19.2678 15.1875 19.6875 14.7678 19.6875 14.25Z" fill="black"/>
</svg>
